<svg xmlns="http://www.w3.org/2000/svg" xmlns:xlink="http://www.w3.org/1999/xlink" width="500" zoomAndPan="magnify" viewBox="0 0 375 374.999991" height="500" preserveAspectRatio="xMidYMid meet" version="1.0"><path stroke-linecap="butt" transform="matrix(0.75, 0, 0, 0.75, -7.817282, 38.999997)" fill="none" stroke-linejoin="miter" d="M 281.245978 352.80211 C 250.709517 352.80211 223.261599 346.354193 198.897014 333.463567 C 174.605346 320.500024 155.506386 302.484398 141.594927 279.41148 C 127.683468 256.34377 120.725134 230.218769 120.725134 201.036475 C 120.725134 171.85939 127.683468 145.734388 141.594927 122.66147 C 155.506386 99.588552 174.605346 81.609384 198.897014 68.71355 C 223.261599 55.755215 250.709517 49.27084 281.245978 49.27084 C 307.912646 49.27084 331.933481 54.02084 353.308482 63.520841 C 374.751192 72.953133 392.563693 86.562509 406.745986 104.338552 L 354.225149 151.875013 C 335.292856 129.072929 312.355355 117.671886 285.417853 117.671886 C 269.605352 117.671886 255.490768 121.166678 243.0741 128.156262 C 230.725141 135.078137 221.120974 144.88543 214.266807 157.57293 C 207.485556 170.197931 204.089723 184.682307 204.089723 201.036475 C 204.089723 217.458351 207.485556 232.015644 214.266807 244.703144 C 221.120974 257.328145 230.725141 267.130229 243.0741 274.119813 C 255.490768 281.041689 269.605352 284.50523 285.417853 284.50523 C 312.355355 284.50523 335.292856 273.104188 354.225149 250.302103 L 406.745986 297.838565 C 392.563693 315.614607 374.751192 329.218775 353.308482 338.651067 C 331.933481 348.08336 307.912646 352.80211 281.245978 352.80211 Z M 281.245978 352.80211 " stroke="#fff7f0" stroke-width="15.634575" stroke-opacity="1" stroke-miterlimit="4"/></svg>