<?xml version="1.0" standalone="no"?>
<!DOCTYPE svg PUBLIC "-//W3C//DTD SVG 20010904//EN"
 "http://www.w3.org/TR/2001/REC-SVG-20010904/DTD/svg10.dtd">
<svg version="1.0" xmlns="http://www.w3.org/2000/svg"
 width="700.000000pt" height="700.000000pt" viewBox="0 0 700.000000 700.000000"
 preserveAspectRatio="xMidYMid meet">
<metadata>
Created by potrace 1.11, written by Peter Selinger 2001-2013
</metadata>
<g transform="translate(0.000000,700.000000) scale(0.100000,-0.100000)"
fill="#000000" stroke="none">
<path d="M2095 6481 c-104 -41 -220 -95 -412 -193 -274 -139 -309 -166 -297
-234 6 -34 28 -77 48 -93 9 -8 16 -17 16 -20 0 -11 -144 -91 -164 -91 -9 0
-41 22 -69 48 -29 27 -63 56 -77 65 -62 42 -146 13 -517 -175 -357 -182 -319
-155 -315 -219 4 -64 11 -78 74 -150 26 -30 48 -61 48 -69 0 -7 -8 -27 -19
-44 -60 -100 -107 -334 -73 -368 24 -24 98 98 137 225 14 48 29 87 33 87 4 0
29 -18 55 -39 26 -22 56 -43 66 -46 23 -7 170 54 391 163 208 103 352 181 386
211 36 31 34 95 -6 147 -35 46 -38 69 -9 85 28 15 151 59 164 59 5 0 25 -23
44 -51 19 -27 52 -64 74 -81 l39 -31 57 19 c87 29 618 296 696 349 l69 47 60
-17 c78 -21 186 -31 186 -17 0 42 -79 99 -218 157 -55 23 -105 52 -137 80 -27
25 -57 45 -66 45 -23 0 -59 43 -59 71 0 28 -37 68 -87 93 -40 20 -35 21 -118
-13z m129 -124 c15 -23 39 -48 54 -55 27 -11 82 -85 82 -108 0 -7 -19 -25 -42
-39 -39 -23 -40 -25 -13 -19 17 4 39 13 51 21 18 12 25 10 55 -10 19 -12 34
-27 34 -32 0 -18 -628 -323 -681 -332 -41 -7 -77 19 -118 85 -16 26 -62 80
-103 120 -73 72 -74 74 -57 93 20 22 406 216 554 278 126 54 149 53 184 -2z
m-1075 -504 c23 -19 41 -40 41 -46 0 -7 39 -54 85 -105 47 -51 85 -96 85 -100
0 -14 -545 -281 -650 -318 -60 -21 -66 -22 -92 -6 -15 9 -32 28 -37 42 -5 15
-54 74 -110 131 -56 57 -101 107 -101 111 0 4 42 27 93 52 50 24 162 77 247
119 275 132 355 166 381 160 10 -3 36 -21 58 -40z"/>
<path d="M2157 6325 c-20 -14 -40 -25 -44 -25 -11 -1 -53 -36 -53 -45 0 -8 85
38 120 65 38 29 19 33 -23 5z"/>
<path d="M2200 6287 c-51 -27 -120 -69 -120 -74 0 -10 48 12 105 48 58 37 67
53 15 26z"/>
<path d="M1978 6225 c-20 -14 -40 -25 -43 -25 -4 0 -26 -13 -50 -30 -24 -16
-46 -30 -49 -30 -10 0 -226 -132 -233 -143 -6 -9 41 14 137 70 19 11 55 31 80
45 86 48 200 119 205 129 11 16 -9 10 -47 -16z"/>
<path d="M2269 6195 c-60 -22 -100 -45 -94 -55 4 -6 19 -3 37 6 17 9 49 21 70
28 22 6 39 15 39 21 1 15 -13 15 -52 0z"/>
<path d="M1968 6157 c-26 -17 -46 -33 -44 -35 4 -3 88 38 116 57 13 9 12 11
-5 10 -11 0 -41 -14 -67 -32z"/>
<path d="M2045 6110 c-81 -29 -142 -58 -149 -69 -7 -11 100 27 179 64 59 28
41 31 -30 5z"/>
<path d="M2170 6101 c-52 -19 -90 -40 -74 -41 14 0 119 36 141 49 17 10 16 10
-2 10 -11 0 -40 -8 -65 -18z"/>
<path d="M1983 6025 c-18 -8 -33 -16 -33 -19 0 -5 60 11 68 19 13 12 -5 12
-35 0z"/>
<path d="M1804 5960 c-36 -14 -39 -31 -4 -19 16 6 30 15 30 20 0 5 -1 9 -2 8
-2 0 -13 -4 -24 -9z"/>
<path d="M1708 5923 c-10 -2 -18 -9 -18 -14 0 -12 10 -11 40 6 24 14 14 18
-22 8z"/>
<path d="M1095 5753 c-11 -3 -24 -9 -29 -14 -17 -15 29 -10 50 6 19 15 15 16
-21 8z"/>
<path d="M820 5649 c-102 -39 -198 -75 -215 -81 -16 -6 -37 -17 -45 -25 -16
-16 47 6 287 98 161 61 199 78 173 78 -8 1 -98 -31 -200 -70z"/>
<path d="M1116 5670 c-114 -71 -115 -79 -4 -23 53 26 99 54 102 61 10 23 -19
12 -98 -38z"/>
<path d="M941 5560 c-30 -26 -14 -26 19 0 14 11 21 20 15 19 -5 0 -21 -9 -34
-19z"/>
<path d="M472 5518 c-22 -22 -12 -29 18 -13 17 9 30 18 30 20 0 10 -36 5 -48
-7z"/>
<path d="M564 5495 c-14 -11 -15 -14 -4 -14 8 0 24 6 34 14 15 11 16 15 5 15
-8 0 -24 -7 -35 -15z"/>
<path d="M795 5479 c-27 -17 -39 -27 -26 -24 25 8 91 44 91 51 0 9 -18 2 -65
-27z"/>
<path d="M644 5460 c-65 -31 -115 -73 -58 -48 43 19 141 78 129 78 -6 0 -38
-13 -71 -30z"/>
<path d="M648 5400 c-20 -11 -40 -25 -43 -31 -4 -6 16 1 44 15 28 15 51 29 51
31 0 9 -14 5 -52 -15z"/>
<path d="M6007 5874 c-1 -1 -54 -4 -117 -8 -111 -6 -187 -12 -260 -21 -19 -3
-98 -8 -175 -11 -77 -4 -150 -11 -163 -15 -41 -16 -44 -46 -27 -266 l7 -92
-58 -3 c-63 -3 -67 -8 -49 -65 5 -17 3 -25 -10 -29 -22 -9 -132 50 -159 84
-27 34 -113 72 -162 72 -32 0 -54 10 -105 46 -97 69 -154 87 -310 99 -161 13
-232 21 -319 35 -93 16 -121 19 -228 25 -57 3 -140 14 -185 25 -215 49 -543
44 -907 -17 -52 -8 -104 -17 -115 -19 -11 -2 -33 -7 -49 -10 -50 -9 -211 -53
-303 -83 -81 -26 -153 -44 -303 -72 -174 -33 -317 -97 -525 -234 -60 -40 -198
-117 -305 -170 -224 -112 -284 -150 -361 -231 -101 -108 -172 -233 -248 -443
-48 -131 -79 -193 -131 -271 l-38 -55 0 -295 c0 -162 -1 -303 -1 -312 -1 -12
-24 -28 -68 -48 -76 -35 -113 -65 -113 -92 0 -25 24 -23 105 8 54 20 70 22 76
12 14 -22 10 -38 -32 -129 -22 -49 -38 -93 -34 -99 3 -5 19 -10 35 -10 23 0
31 -6 36 -24 7 -31 -1 -56 -37 -115 -40 -64 -44 -89 -15 -102 18 -8 31 -7 55
5 36 19 43 12 43 -46 2 -92 3 -90 -55 -102 -49 -11 -78 -84 -43 -108 16 -11
64 -10 71 2 12 19 36 10 46 -17 5 -15 17 -75 25 -133 16 -114 35 -186 66 -239
10 -18 37 -86 59 -149 48 -141 95 -229 233 -435 242 -363 302 -422 565 -558
73 -37 127 -75 178 -121 40 -38 78 -68 84 -68 6 0 97 -40 202 -89 303 -141
305 -142 672 -212 88 -17 171 -32 185 -35 14 -2 34 -6 45 -9 11 -2 43 -7 70
-11 28 -3 52 -8 55 -9 3 -2 33 -6 65 -10 33 -3 67 -8 75 -10 8 -2 51 -7 95
-10 44 -3 103 -8 130 -10 28 -2 104 -7 170 -10 66 -4 152 -13 190 -22 39 -8
82 -17 96 -20 16 -3 47 5 78 20 54 25 78 27 221 12 112 -11 144 -12 180 -3 19
4 69 11 110 14 41 3 91 10 110 15 19 4 51 11 70 14 56 10 335 90 460 133 143
49 203 73 280 112 33 17 86 36 118 44 69 16 97 29 137 65 17 15 59 40 95 56
137 59 270 149 475 320 61 50 122 100 137 110 15 9 49 47 75 84 26 36 82 102
124 146 91 94 125 138 203 259 32 49 82 114 112 144 46 47 54 60 54 93 0 47
-7 52 -82 58 -26 2 -22 16 13 48 56 51 69 67 69 84 0 47 -151 115 -577 258
-275 93 -454 149 -578 182 -88 23 -104 15 -128 -67 -21 -78 -89 -189 -177
-294 -39 -47 -88 -112 -108 -144 -39 -62 -115 -146 -132 -146 -6 0 -59 -33
-118 -73 -284 -194 -544 -327 -739 -376 -162 -42 -271 -57 -475 -67 -134 -6
-150 -5 -175 12 -21 13 -41 17 -78 15 -100 -7 -146 -5 -235 14 -14 2 -49 10
-78 16 -89 18 -187 55 -213 80 -27 26 -34 32 -149 124 -110 88 -195 170 -262
254 -107 134 -127 192 -133 392 -5 172 -9 212 -41 389 -19 112 -27 462 -12
560 52 342 91 511 135 590 78 137 263 339 390 423 37 25 97 57 133 72 36 15
86 38 112 51 100 51 489 137 683 151 122 9 596 9 670 0 197 -24 433 -121 545
-226 19 -18 56 -43 82 -57 26 -13 59 -36 73 -51 28 -29 119 -212 175 -350 l33
-82 54 -9 c74 -13 152 -15 513 -15 333 -1 457 5 491 24 18 9 20 17 15 62 -6
61 -15 286 -21 547 -13 566 -24 909 -30 961 -3 21 -15 43 -31 57 -21 18 -27
33 -29 73 -1 29 2 54 9 60 6 5 22 18 36 29 l25 20 -29 24 c-42 35 -101 45
-274 49 -62 2 -114 2 -115 1z m-67 -179 c0 -5 -50 -68 -110 -139 -61 -71 -110
-133 -110 -137 0 -4 -9 -5 -20 -2 -10 3 -42 0 -70 -7 -44 -11 -53 -10 -69 4
-22 20 -31 20 -31 2 0 -7 10 -20 22 -28 l22 -15 -19 -44 c-10 -24 -26 -52 -35
-62 -16 -18 -18 -16 -49 31 -17 27 -41 53 -53 59 -20 9 -20 11 23 54 99 99
305 244 394 277 55 20 105 24 105 7z m190 -12 c0 -20 -24 -11 -28 10 -2 12 1
15 12 11 9 -3 16 -13 16 -21z m-564 -25 c9 -14 -47 -65 -81 -74 -42 -10 -97
56 -64 77 21 13 137 11 145 -3z m-2370 -46 c-3 -6 -42 -36 -87 -67 -44 -31
-83 -63 -86 -71 -3 -8 -14 -14 -25 -14 -46 0 -244 -108 -298 -162 -14 -14 -41
-33 -60 -43 -19 -10 -48 -28 -65 -40 -16 -12 -58 -34 -93 -48 -61 -26 -107
-54 -230 -142 -35 -25 -68 -44 -75 -42 -6 1 -13 -8 -15 -20 -2 -13 -9 -24 -15
-24 -7 -1 -29 -3 -49 -4 -48 -3 -71 -12 -63 -24 3 -6 12 -8 19 -5 8 3 17 1 21
-5 6 -10 -13 -21 -137 -75 -60 -26 -148 -80 -184 -114 -31 -30 -96 -68 -126
-75 -15 -4 -34 -19 -43 -35 -19 -31 -93 -79 -133 -87 -15 -2 -35 -14 -44 -26
-15 -18 -31 -25 -61 -28 -4 -1 -12 -12 -17 -26 -6 -15 -17 -25 -30 -25 -11 0
-20 -4 -20 -9 0 -6 -29 -24 -65 -41 -36 -17 -80 -47 -99 -66 -26 -27 -46 -37
-78 -41 -58 -8 -109 -35 -149 -80 -80 -89 -136 -135 -212 -173 -50 -25 -84
-37 -90 -31 -6 6 8 41 37 94 29 53 46 97 46 118 0 34 0 34 49 34 62 0 161 49
313 157 140 99 220 149 568 353 151 89 370 218 485 287 291 173 556 328 562
328 3 0 17 8 31 18 15 11 95 54 177 97 83 43 175 96 205 119 30 22 70 45 90
52 35 12 58 5 46 -14z m-336 -6 c-18 -18 -170 -96 -187 -96 -23 0 -2 27 39 50
32 18 124 53 158 59 2 1 -2 -5 -10 -13z m575 5 c7 -12 -24 -43 -36 -35 -5 3
-5 13 1 25 11 20 25 25 35 10z m373 -5 c11 -11 -58 -64 -108 -82 -25 -10 -62
-34 -82 -53 -20 -20 -74 -56 -120 -80 -122 -65 -197 -119 -220 -157 -16 -28
-26 -34 -52 -34 -21 0 -49 -12 -76 -31 -24 -18 -68 -42 -97 -55 -34 -15 -57
-33 -62 -48 -6 -14 -20 -25 -38 -29 -15 -3 -44 -17 -63 -31 -19 -14 -56 -40
-82 -57 -27 -17 -48 -35 -48 -40 0 -13 -70 -55 -126 -74 -27 -9 -51 -20 -54
-24 -15 -23 -359 -211 -387 -211 -5 0 -41 -27 -79 -60 -38 -33 -75 -60 -82
-60 -29 0 -236 -118 -307 -175 -22 -18 -65 -45 -95 -60 -30 -15 -73 -42 -95
-59 -22 -18 -55 -38 -73 -46 -19 -7 -40 -19 -47 -27 -15 -14 -140 -73 -157
-73 -5 0 -29 -14 -53 -30 -25 -17 -73 -43 -108 -59 -35 -16 -106 -58 -158 -94
-110 -76 -186 -122 -220 -132 -13 -4 -42 -22 -64 -39 -61 -49 -62 -49 -60 -10
3 36 26 63 56 64 44 1 286 138 449 255 117 83 183 126 265 170 61 33 478 280
620 368 897 553 1507 947 1576 1018 16 16 29 36 29 44 0 7 10 15 23 18 34 6
187 1 195 -7z m-428 -82 c-8 -8 -44 -31 -80 -49 -36 -18 -72 -40 -79 -49 -7
-8 -25 -18 -41 -21 -15 -3 -55 -29 -89 -58 -56 -49 -227 -137 -291 -151 -14
-3 -33 -19 -42 -36 -10 -17 -32 -38 -49 -48 -17 -9 -77 -46 -133 -82 -55 -36
-127 -81 -159 -100 -32 -19 -73 -49 -92 -67 -19 -18 -39 -33 -45 -33 -5 0 -94
-48 -197 -106 -104 -59 -224 -127 -268 -151 -80 -45 -117 -72 -82 -60 26 10
20 0 -10 -16 -16 -8 -65 -35 -111 -59 -45 -24 -80 -47 -77 -50 9 -9 -19 -27
-147 -92 -70 -36 -143 -81 -167 -104 -42 -40 -93 -70 -131 -77 -36 -7 -21 12
48 61 148 108 1028 688 1192 786 168 101 648 378 654 378 2 0 41 22 88 49 115
66 310 163 316 156 3 -2 -1 -12 -8 -21z m819 22 c-20 -20 -133 -97 -169 -115
-25 -13 -62 -32 -82 -42 -20 -10 -44 -19 -52 -19 -9 0 -46 -28 -83 -63 -86
-80 -111 -97 -145 -97 -54 0 -202 -77 -278 -145 -47 -42 -153 -107 -209 -130
-31 -12 -78 -36 -105 -53 -28 -18 -59 -32 -70 -32 -29 0 -41 -10 -59 -46 -17
-33 -69 -64 -109 -64 -12 0 -48 -16 -78 -35 -30 -19 -58 -35 -63 -35 -6 0 -20
-11 -33 -25 -13 -14 -32 -25 -43 -25 -26 0 -36 -17 -21 -35 11 -13 6 -15 -26
-15 -64 0 -108 -18 -147 -59 -23 -24 -51 -42 -74 -48 -28 -6 -38 -14 -38 -28
0 -16 -9 -21 -40 -26 -22 -3 -57 -14 -78 -23 -21 -9 -42 -14 -46 -11 -5 2 -21
-11 -35 -30 -16 -20 -55 -49 -95 -69 -100 -50 -311 -165 -346 -189 -16 -11
-46 -35 -65 -52 -19 -18 -69 -50 -111 -72 -100 -53 -209 -125 -236 -157 -12
-14 -50 -39 -84 -57 -34 -17 -114 -63 -178 -103 -64 -40 -161 -98 -217 -129
-110 -62 -138 -87 -148 -130 -4 -16 -12 -27 -19 -24 -16 5 -23 47 -22 142 l0
79 105 41 c128 51 160 67 226 117 28 21 57 38 65 38 8 0 104 50 213 110 110
61 201 110 203 110 1 0 96 57 210 126 114 69 277 164 363 211 249 137 322 179
565 321 218 128 498 297 575 347 462 300 805 493 940 529 50 13 149 22 139 12z
m1966 -43 c-22 -19 -74 -53 -115 -75 -41 -23 -82 -47 -91 -54 -12 -11 -119
-27 -119 -18 0 8 176 117 234 144 123 58 156 59 91 3z m-1675 -12 c0 -11 -110
-74 -161 -92 -62 -22 -393 -189 -463 -234 -114 -72 -147 -65 -45 10 94 69 287
189 380 236 116 59 289 107 289 80z m-1879 -50 c-6 -10 -34 -26 -63 -36 -79
-25 -220 -103 -338 -186 -58 -41 -130 -86 -160 -101 -30 -16 -68 -39 -83 -52
-16 -14 -43 -28 -60 -31 -47 -10 -109 -48 -227 -140 -116 -90 -155 -115 -250
-164 -36 -19 -77 -43 -92 -53 -15 -10 -51 -29 -80 -43 -29 -13 -76 -45 -104
-72 -52 -49 -190 -135 -344 -215 -117 -61 -132 -65 -86 -23 45 41 42 58 -5 25
-28 -21 -30 -21 -21 -4 16 30 43 50 86 64 31 10 42 20 54 52 12 31 32 50 96
93 72 48 482 285 492 285 3 0 21 10 42 23 20 13 66 39 102 59 36 19 97 53 135
75 39 22 95 53 125 70 30 17 78 43 105 58 588 331 588 331 658 334 24 1 26 -1
18 -18z m1988 -27 c-38 -42 -141 -112 -205 -140 -33 -14 -80 -41 -105 -60 -26
-19 -50 -34 -54 -34 -4 0 -59 -21 -122 -46 -81 -32 -155 -71 -242 -129 -69
-45 -142 -87 -162 -93 -31 -8 -69 -9 -189 -3 -19 1 -9 9 45 36 87 43 260 123
430 201 72 32 236 111 365 176 129 64 241 117 249 118 10 0 7 -9 -10 -26z
m-2384 -17 c-6 -14 -34 -27 -63 -27 -21 0 -2 21 32 35 35 15 39 14 31 -8z
m4025 -42 c-56 -91 -215 -177 -377 -205 -63 -10 -76 -16 -94 -42 -13 -18 -51
-43 -96 -65 -40 -19 -86 -45 -101 -57 -15 -13 -37 -29 -50 -35 -23 -12 -112
-23 -112 -14 0 12 56 49 178 119 72 41 162 100 198 129 43 35 84 59 119 69 29
9 113 42 187 75 187 82 182 81 148 26z m-4139 -14 c-16 -29 -66 -65 -136 -97
-33 -15 -92 -47 -130 -70 -65 -39 -151 -71 -162 -61 -2 3 33 27 79 55 143 86
352 202 356 198 2 -3 -1 -13 -7 -25z m3719 -42 c-5 -9 -19 -23 -32 -31 -13 -9
-36 -27 -52 -41 -23 -20 -34 -24 -48 -16 -41 22 -10 58 97 113 33 17 50 5 35
-25z m-877 -28 c10 -10 -40 -43 -158 -106 -49 -26 -117 -62 -150 -80 -226
-122 -317 -165 -350 -165 -106 0 40 113 342 264 178 89 284 118 316 87z
m-3292 -34 c-11 -14 -246 -179 -311 -220 -30 -18 -33 -19 -20 -3 22 28 157
128 235 175 39 23 77 46 85 51 21 13 24 12 11 -3z m3564 -17 c-6 -29 -14 -40
-31 -40 -18 0 -18 4 1 41 17 32 36 31 30 -1z m399 24 c46 -18 -12 -89 -111
-137 -38 -17 -73 -43 -85 -61 -35 -49 -67 -73 -143 -105 -38 -16 -131 -57
-205 -92 -78 -36 -154 -64 -180 -67 l-45 -4 38 39 c33 35 135 102 232 154 17
8 84 44 150 79 66 35 149 80 185 101 36 20 80 40 98 44 21 4 32 12 32 24 0 28
9 34 34 25z m646 -44 c0 -26 -6 -31 -70 -55 -39 -15 -93 -42 -120 -61 -27 -18
-79 -48 -117 -65 -37 -18 -91 -49 -119 -70 -32 -25 -69 -42 -100 -48 -28 -6
-85 -31 -134 -61 -85 -51 -93 -54 -162 -65 -24 -4 -58 -23 -95 -54 -64 -53
-128 -91 -155 -91 -23 0 -23 32 0 52 39 34 272 158 575 308 177 87 349 176
382 198 89 59 115 61 115 12z m-1155 -50 c7 -12 -17 -34 -99 -89 -211 -142
-289 -174 -424 -174 -51 0 -95 3 -97 5 -12 12 171 113 339 189 55 24 126 61
159 81 l60 37 28 -20 c16 -11 31 -24 34 -29z m-3465 -69 c0 -20 -27 -48 -37
-37 -9 8 14 56 27 56 5 0 10 -8 10 -19z m4646 -25 c11 -45 0 -60 -66 -95 -36
-18 -94 -50 -130 -71 -36 -21 -77 -41 -92 -44 -14 -3 -39 -17 -55 -30 -30 -25
-48 -32 -106 -40 -21 -4 -55 -19 -75 -35 -38 -30 -178 -103 -222 -116 -14 -4
-36 -18 -50 -30 -14 -13 -43 -27 -65 -30 -34 -6 -107 -34 -138 -52 -5 -3 -4 3
1 13 25 47 104 97 392 247 63 33 194 104 290 157 306 170 305 169 316 126z
m-4716 -36 c0 -37 -80 -90 -136 -90 -7 0 -29 -16 -50 -35 -22 -19 -57 -40 -79
-46 -80 -22 -101 -33 -179 -91 -44 -33 -93 -62 -109 -65 -19 -4 -36 -18 -49
-39 -11 -19 -27 -34 -34 -34 -30 0 33 73 121 142 98 77 462 278 502 278 7 0
13 -9 13 -20z m2580 -10 c0 -5 -17 -17 -37 -25 -21 -9 -49 -27 -63 -39 -38
-35 -68 -48 -87 -38 -13 8 3 20 78 61 99 53 109 57 109 41z m1240 -90 c0 -5
-15 -17 -32 -26 -18 -9 -48 -30 -66 -45 -22 -20 -44 -29 -67 -29 -59 0 -50 19
27 54 143 64 138 62 138 46z m-4270 -16 c0 -2 -7 -4 -15 -4 -8 0 -15 4 -15 10
0 5 7 7 15 4 8 -4 15 -8 15 -10z m3663 -41 c-8 -22 -23 -33 -45 -33 -22 0 -23
14 -2 34 22 23 55 21 47 -1z m1551 2 c8 -21 -27 -37 -72 -33 l-37 3 40 22 c48
26 61 28 69 8z m-3125 -44 c21 -14 5 -41 -24 -41 -29 0 -45 27 -24 41 8 5 19
9 24 9 6 0 16 -4 24 -9z m3108 -116 c-10 -7 -42 -19 -70 -25 -29 -7 -69 -23
-89 -36 -20 -13 -92 -46 -160 -75 -68 -28 -153 -66 -190 -85 -36 -18 -78 -35
-92 -37 -28 -3 -61 -26 -68 -47 -2 -8 -25 -13 -60 -14 -40 -1 -62 -7 -77 -20
-12 -11 -23 -17 -26 -14 -12 12 48 48 230 137 145 71 216 103 315 143 87 35
256 87 285 87 19 0 19 0 2 -14z m-3382 -54 c-29 -27 -65 -37 -65 -16 0 16 31
33 65 34 19 1 19 1 0 -18z m3379 -90 c8 -12 -98 -66 -169 -86 -33 -10 -67 -23
-75 -31 -17 -15 -166 -84 -181 -84 -5 0 -39 -18 -76 -40 -94 -57 -281 -150
-303 -150 -13 0 -17 5 -13 20 6 21 45 54 98 83 32 18 204 97 210 97 1 0 63 29
136 63 234 111 358 154 373 128z m-784 -62 c0 -8 -32 -29 -44 -29 -10 0 -6 26
5 37 12 12 39 7 39 -8z m569 -203 c-2 -2 -49 -30 -104 -62 -55 -31 -139 -83
-187 -116 -47 -32 -99 -62 -115 -67 -42 -12 -126 -8 -130 6 -6 16 220 125 462
222 45 18 85 27 74 17z m273 -34 c9 -33 -3 -72 -23 -72 -5 0 -54 -19 -107 -41
-53 -23 -126 -52 -162 -65 -74 -27 -171 -43 -155 -26 6 6 94 57 195 112 102
56 192 108 200 116 22 22 43 13 52 -24z m-4052 -99 c0 -12 -42 -56 -80 -84
-44 -32 -100 -63 -220 -124 -52 -27 -112 -59 -133 -72 -21 -13 -70 -35 -110
-49 -104 -38 -467 -228 -630 -331 -248 -156 -527 -318 -527 -305 0 7 298 211
369 251 15 9 134 80 264 159 131 78 239 142 242 142 3 0 26 13 53 30 27 16 92
48 146 70 125 52 272 126 406 203 98 57 210 117 217 117 2 0 3 -3 3 -7z
m-1340 -124 c-25 -22 -55 -42 -68 -45 -13 -4 -28 -19 -35 -36 -10 -25 -31 -39
-122 -80 -128 -58 -155 -66 -155 -46 0 26 86 95 130 103 26 5 117 51 140 70
27 23 125 75 140 74 9 0 -4 -17 -30 -40z m1280 -116 c0 -12 -101 -83 -117 -83
-7 0 -35 -20 -62 -45 -43 -40 -140 -102 -271 -173 -25 -13 -52 -29 -60 -36 -8
-7 -67 -41 -130 -76 -104 -56 -175 -101 -227 -144 -75 -62 -159 -115 -269
-172 -71 -37 -176 -95 -234 -129 -58 -35 -141 -81 -185 -104 l-80 -41 -12 53
c-22 93 -33 81 212 220 566 322 934 518 1230 654 175 80 205 91 205 76z m-62
-254 c2 -19 -4 -43 -11 -54 -13 -17 -18 -18 -41 -7 -43 19 -54 15 -75 -32 -12
-29 -36 -57 -68 -80 -55 -41 -194 -116 -215 -116 -7 0 -29 -11 -48 -23 -19
-13 -51 -29 -70 -36 -19 -6 -65 -29 -101 -51 -149 -88 -804 -411 -774 -381 10
10 385 231 392 231 2 0 16 9 31 19 43 30 512 321 518 321 3 0 24 13 47 28 102
69 386 223 402 218 6 -1 11 -18 13 -37z m2 -219 c0 -5 -6 -15 -13 -22 -7 -7
-22 -26 -32 -41 -10 -16 -22 -24 -27 -19 -11 11 17 78 39 91 18 10 33 6 33 -9z
m-120 -58 c0 -11 -22 -32 -57 -55 -32 -20 -63 -45 -70 -56 -7 -10 -36 -27 -65
-36 -82 -27 -180 -79 -339 -181 -81 -51 -163 -100 -183 -108 -20 -8 -36 -19
-36 -25 0 -14 -212 -119 -257 -127 -22 -4 -56 -23 -81 -44 -49 -44 -175 -108
-226 -117 -31 -5 -33 -8 -23 -24 6 -10 8 -21 4 -25 -11 -11 -36 16 -57 60 -14
32 -16 44 -7 52 7 7 266 140 577 297 746 377 804 406 813 407 4 0 7 -8 7 -18z
m70 -177 c0 -31 -4 -36 -47 -55 -26 -12 -91 -48 -144 -80 -104 -64 -226 -127
-301 -155 -27 -10 -59 -28 -72 -41 -46 -46 -212 -164 -246 -175 -19 -6 -46
-22 -60 -35 -15 -14 -48 -28 -78 -34 -61 -11 -92 -26 -231 -110 -70 -43 -110
-74 -123 -97 -11 -18 -28 -33 -38 -33 -22 0 -60 45 -60 71 0 39 136 122 615
374 61 32 133 70 160 85 28 15 112 60 189 100 294 154 421 220 429 220 4 0 7
-16 7 -35z m20 -172 c0 -9 -9 -35 -20 -57 -15 -31 -31 -46 -68 -63 -26 -12
-63 -33 -82 -46 -89 -60 -217 -124 -260 -131 -3 -1 -17 -11 -30 -24 -14 -13
-90 -55 -170 -94 -80 -39 -244 -119 -365 -178 -202 -100 -246 -116 -299 -112
-15 2 -16 5 -6 17 7 8 18 15 24 15 22 0 171 77 327 168 210 123 390 221 604
331 99 51 212 114 250 141 76 52 95 59 95 33z m7 -327 c-3 -8 1 -22 8 -33 8
-10 15 -26 15 -35 0 -19 -58 -62 -140 -103 -61 -30 -100 -62 -100 -81 0 -18
-26 -30 -78 -38 -24 -4 -65 -17 -90 -30 -26 -13 -62 -26 -81 -30 -47 -9 -167
-67 -226 -110 -27 -20 -59 -36 -70 -36 -11 0 -29 -9 -38 -21 -31 -36 -226
-113 -373 -148 -61 -15 -114 -45 -114 -66 0 -17 -16 -20 -25 -4 -14 22 7 59
48 87 23 16 103 60 177 99 74 39 216 114 315 168 217 117 428 223 589 295 66
30 131 64 145 77 30 26 46 30 38 9z m3638 -139 c44 -28 104 -62 134 -75 l54
-25 -29 -26 c-33 -29 -358 -241 -446 -290 l-57 -32 10 33 c5 18 9 39 9 45 0
24 -26 13 -44 -18 -35 -60 -80 -100 -164 -150 -99 -59 -362 -192 -368 -186 -2
2 49 39 114 83 122 82 369 266 412 306 59 55 299 209 354 228 44 14 52 29 35
62 -16 31 -28 38 -65 38 -43 0 -97 -24 -172 -76 -61 -43 -63 -43 -40 -13 12
17 38 52 55 77 52 74 61 82 97 75 17 -4 67 -29 111 -56z m-4274 -37 c-19 -16
-48 -32 -65 -36 -17 -3 -51 -26 -76 -49 -25 -25 -76 -58 -115 -75 -82 -37
-152 -92 -157 -123 l-3 -22 -20 23 c-24 27 -45 28 -76 1 -13 -11 -34 -29 -45
-39 -12 -10 -46 -34 -75 -54 -51 -34 -54 -35 -63 -17 -20 45 -1 67 91 106 105
45 359 171 463 230 165 93 203 108 141 55z m4612 -101 c20 -5 37 -13 37 -18 0
-9 -48 -37 -53 -30 -20 27 -36 59 -30 59 5 0 25 -5 46 -11z m-3953 -28 c0 -15
-25 -32 -107 -71 -60 -28 -133 -65 -163 -81 -30 -17 -93 -48 -140 -70 -47 -22
-114 -55 -150 -73 -36 -18 -90 -41 -121 -50 -31 -9 -86 -35 -124 -57 -37 -21
-78 -42 -91 -45 -12 -3 -25 -12 -28 -20 -3 -8 -21 -21 -40 -29 -20 -8 -63 -33
-97 -55 -34 -22 -67 -40 -73 -40 -23 1 -96 83 -85 95 6 5 167 85 173 85 2 0
48 21 103 46 54 26 256 113 448 195 193 82 368 158 390 168 55 27 105 27 105
2z m4200 -66 c23 -8 58 -15 76 -15 19 0 34 -3 34 -6 0 -3 -19 -25 -42 -48
-111 -108 -238 -184 -323 -193 -26 -3 -45 -11 -45 -18 0 -14 -32 -30 -115 -56
-66 -22 -90 -35 -155 -91 -25 -21 -73 -47 -105 -58 -33 -11 -107 -45 -165 -75
-58 -29 -129 -63 -157 -74 -29 -11 -74 -36 -101 -55 -26 -19 -84 -49 -128 -67
-99 -39 -151 -66 -234 -118 -36 -23 -95 -56 -131 -75 -37 -18 -82 -45 -101
-59 -19 -15 -103 -59 -188 -100 -85 -41 -196 -99 -246 -129 -50 -31 -124 -67
-165 -81 -101 -35 -283 -117 -399 -180 -199 -107 -297 -147 -362 -147 -37 0
-35 14 5 38 36 22 486 264 672 362 66 35 134 71 150 80 17 10 64 35 105 58
286 153 1000 541 1015 552 6 4 44 25 85 47 98 53 651 360 670 373 25 17 291
150 300 150 4 0 27 -7 50 -15z m-5616 -48 c-12 -21 -37 -47 -45 -47 -11 0 0
31 19 52 16 19 37 14 26 -5z m5237 -7 c-35 -30 -170 -100 -193 -100 -17 0 20
25 122 82 97 54 121 60 71 18z m-3735 -65 c20 -25 35 -47 33 -49 -2 -2 -31 -7
-64 -10 -130 -15 -296 -72 -500 -172 -71 -35 -150 -66 -174 -69 -27 -4 -83
-29 -146 -66 -57 -32 -106 -59 -109 -59 -5 0 -103 -68 -157 -110 l-26 -19 -43
44 c-24 25 -42 46 -39 48 2 2 42 19 89 37 80 31 421 185 665 300 103 48 332
150 365 163 43 16 69 7 106 -38z m3502 -57 c-3 -7 -43 -33 -90 -58 -46 -25
-100 -57 -119 -72 -43 -34 -137 -78 -167 -78 -12 0 -25 -7 -28 -15 -4 -9 -19
-15 -39 -15 -77 0 -40 37 90 89 44 17 139 61 210 96 137 68 149 72 143 53z
m711 -27 c26 -17 4 -55 -53 -89 -30 -18 -74 -50 -97 -72 -32 -29 -52 -40 -75
-40 -23 0 -39 -8 -56 -28 -13 -16 -48 -41 -78 -55 -30 -15 -89 -45 -130 -67
-41 -22 -82 -40 -91 -40 -9 0 -34 -12 -55 -27 -52 -35 -114 -63 -141 -63 -19
0 -23 -6 -23 -30 0 -20 -6 -33 -17 -37 -10 -3 -73 -30 -141 -59 -67 -30 -146
-61 -175 -70 -64 -19 -80 -27 -79 -39 1 -20 -34 -47 -103 -79 -38 -18 -97 -50
-130 -72 -99 -64 -126 -76 -156 -70 -20 4 -34 -1 -53 -19 -38 -35 -101 -70
-179 -100 -38 -14 -114 -50 -170 -79 -56 -30 -126 -61 -156 -70 -30 -9 -63
-25 -72 -35 -10 -11 -44 -27 -76 -36 -35 -10 -73 -30 -95 -51 -21 -18 -54 -40
-73 -48 -20 -9 -54 -34 -76 -56 -22 -22 -50 -41 -62 -41 -84 -5 -255 -3 -249
2 4 4 214 111 467 238 253 127 519 262 590 299 327 171 411 216 725 385 184
99 441 239 570 310 276 152 380 207 435 230 47 19 55 20 74 8z m-4122 -57 c5
-15 -137 -88 -212 -109 -33 -10 -71 -27 -85 -40 -14 -13 -36 -26 -50 -30 -14
-4 -93 -36 -176 -71 -83 -35 -159 -64 -167 -64 -9 0 -43 -24 -75 -52 -50 -45
-261 -174 -326 -201 -24 -10 -56 18 -56 49 0 55 112 135 280 199 52 20 183 79
290 130 215 102 226 106 355 140 50 13 110 32 135 44 48 21 81 23 87 5z m119
-145 c19 -21 18 -21 -6 -41 -36 -29 -105 -62 -185 -88 -38 -13 -124 -46 -190
-75 -66 -29 -138 -59 -160 -66 -22 -7 -50 -23 -63 -36 -13 -13 -35 -23 -50
-23 -34 0 -51 -11 -66 -41 -10 -20 -18 -24 -53 -21 -36 2 -47 -2 -89 -39 -96
-83 -269 -133 -288 -84 -10 27 328 200 749 385 22 10 63 28 90 40 41 19 198
82 255 103 27 10 37 7 56 -14z m-1552 -35 c23 -9 20 -21 -6 -27 -27 -8 -56 12
-36 24 16 10 22 11 42 3z m4249 -37 c-19 -32 -33 -41 -283 -185 -115 -66 -160
-83 -160 -58 0 29 430 294 453 279 4 -3 0 -19 -10 -36z m91 12 c-8 -13 -24 -1
-24 18 0 13 3 13 15 3 8 -7 12 -16 9 -21z m1007 -80 c-24 -21 -56 -42 -70 -46
-14 -3 -49 -27 -77 -53 -57 -54 -92 -74 -156 -90 -27 -7 -74 -33 -114 -64 -38
-29 -107 -72 -153 -96 -46 -24 -96 -54 -111 -67 -16 -13 -39 -23 -53 -23 -16
0 -46 -19 -85 -54 -33 -29 -72 -56 -87 -60 -15 -4 -64 -31 -109 -60 -44 -29
-121 -70 -171 -91 -108 -47 -162 -78 -235 -133 -30 -23 -86 -54 -125 -69 -38
-14 -160 -64 -269 -111 -225 -95 -340 -132 -321 -103 13 22 545 310 1210 656
172 90 466 245 540 285 28 15 113 61 190 102 251 136 268 143 196 77z m-3556
-70 c30 -11 55 -27 55 -34 0 -35 -210 -137 -525 -255 -227 -85 -402 -162 -455
-200 -47 -33 -25 -50 64 -50 85 0 136 13 173 43 47 39 95 63 171 86 40 12 107
35 148 51 52 20 74 24 74 15 0 -26 -122 -93 -172 -95 -9 0 -29 -11 -44 -25
-32 -29 -124 -76 -276 -138 l-107 -44 -90 51 c-76 43 -87 52 -73 62 9 6 134
71 277 144 554 283 687 356 705 390 13 24 8 24 75 -1z m-381 -44 c-35 -28
-146 -91 -309 -175 -230 -119 -261 -137 -350 -195 -125 -82 -136 -84 -178 -37
-17 19 -17 21 -1 37 27 27 316 164 559 265 121 51 236 100 255 110 40 20 53
17 24 -5z m2147 -90 c-24 -14 -60 -38 -80 -54 -21 -16 -50 -33 -67 -37 -16 -4
-37 -14 -46 -22 -15 -12 -18 -13 -18 -1 0 18 77 70 160 108 80 36 111 40 51 6z
m-1571 -14 c0 -11 -25 -21 -55 -21 -27 0 -42 16 -23 23 22 9 78 7 78 -2z
m1771 -6 c0 -5 -9 -11 -21 -13 -15 -3 -18 1 -14 13 7 17 35 17 35 0z m-1951
-50 c0 -24 -152 -93 -182 -83 -10 4 162 98 178 98 2 0 4 -7 4 -15z m423 -24
c50 -3 -12 -38 -106 -60 -113 -27 -232 -82 -324 -150 -50 -38 -140 -93 -200
-124 -59 -30 -182 -96 -272 -146 -90 -50 -168 -91 -174 -91 -18 0 -117 65
-117 77 0 32 364 209 808 393 204 85 287 110 347 104 11 -1 28 -3 38 -3z
m1317 -20 c0 -12 -70 -59 -107 -72 -18 -6 -35 -19 -38 -30 -4 -12 -15 -19 -30
-19 -15 0 -33 -11 -46 -30 -12 -16 -35 -32 -50 -35 -15 -3 -57 -24 -94 -46
-36 -22 -90 -48 -120 -58 -29 -10 -77 -34 -106 -53 -30 -20 -107 -62 -171 -94
-114 -56 -138 -77 -100 -87 9 -3 1 -5 -19 -6 -19 0 -43 5 -53 12 -15 11 -9 18
61 59 43 25 137 76 208 113 171 89 241 129 413 238 79 49 158 95 176 101 42
14 76 17 76 7z m-1111 -32 c-8 -5 -42 -18 -76 -30 -44 -14 -69 -30 -84 -50
-28 -40 -98 -75 -156 -78 -7 -1 -35 -21 -62 -45 -36 -32 -68 -50 -111 -62 -34
-9 -87 -34 -118 -54 -32 -20 -93 -56 -137 -80 -184 -99 -212 -115 -254 -142
-25 -15 -55 -28 -68 -28 -45 0 -35 8 126 107 20 13 43 26 51 30 8 4 40 21 70
38 30 18 100 56 155 85 55 29 132 70 170 90 313 167 498 255 504 238 2 -5 -3
-14 -10 -19z m301 -14 c-7 -8 -22 -15 -34 -15 -20 1 -20 2 4 15 33 19 46 19
30 0z m511 -18 c-12 -15 -114 -67 -131 -67 -24 0 6 24 64 51 68 32 84 35 67
16z m1674 -67 c-121 -105 -398 -265 -622 -359 -165 -70 -413 -164 -419 -159
-2 2 155 84 349 182 395 200 568 290 654 340 78 46 94 44 38 -4z m-1990 21 c3
-5 -11 -15 -32 -22 -20 -6 -45 -20 -56 -29 -10 -10 -39 -26 -65 -35 -85 -32
-162 -78 -180 -107 -14 -24 -23 -28 -60 -28 -36 0 -51 -6 -87 -37 -59 -53
-255 -149 -255 -126 0 20 235 159 467 277 83 42 162 85 175 96 24 20 83 27 93
11z m-361 -26 c-1 -10 -19 -20 -144 -80 -41 -19 -82 -44 -92 -55 -9 -11 -22
-20 -30 -20 -22 0 -141 -60 -168 -84 -14 -13 -56 -35 -95 -50 -38 -15 -88 -38
-110 -51 -22 -13 -68 -41 -103 -61 -72 -41 -124 -100 -102 -114 8 -5 17 -7 20
-5 4 2 19 6 35 9 16 3 69 21 119 40 194 74 256 85 175 29 -66 -45 -204 -114
-236 -117 -15 -2 -44 2 -64 9 -42 15 -120 26 -196 28 -46 1 -51 3 -43 18 22
41 168 129 310 188 30 13 71 30 90 38 19 8 161 77 315 154 255 126 322 152
319 124z m437 -50 c-1 -15 -24 -12 -29 3 -3 9 2 13 12 10 10 -1 17 -7 17 -13z
m-61 -29 c0 -8 -21 -21 -48 -30 -27 -9 -64 -28 -83 -42 -19 -14 -73 -45 -121
-69 -48 -25 -131 -72 -184 -106 -110 -68 -191 -110 -246 -128 -38 -12 -52 -31
-23 -31 8 0 23 -9 34 -21 l19 -20 43 21 c23 12 67 39 98 60 65 44 121 73 127
67 5 -5 -320 -219 -357 -234 -39 -17 -115 -9 -212 22 l-89 28 37 13 c20 7 68
20 106 29 43 11 85 29 111 49 94 71 586 346 619 346 7 0 35 11 63 24 87 40
106 44 106 22z"/>
</g>
</svg>
