<?xml version="1.0" standalone="no"?>
<!DOCTYPE svg PUBLIC "-//W3C//DTD SVG 20010904//EN"
 "http://www.w3.org/TR/2001/REC-SVG-20010904/DTD/svg10.dtd">
<svg version="1.0" xmlns="http://www.w3.org/2000/svg"
 width="700.000000pt" height="700.000000pt" viewBox="0 0 700.000000 700.000000"
 preserveAspectRatio="xMidYMid meet">
<metadata>
Created by potrace 1.14, written by Peter Selinger 2001-2017
</metadata>
<g transform="translate(0.000000,700.000000) scale(0.100000,-0.100000)"
fill="#000000" stroke="none">
<path d="M3560 5684 c-621 -58 -1138 -293 -1526 -696 -332 -345 -528 -770
-585 -1267 -15 -139 -6 -523 15 -651 142 -825 701 -1464 1511 -1724 369 -118
836 -152 1248 -91 426 64 796 222 1108 473 84 68 251 238 320 328 l46 59 -441
399 c-243 220 -446 401 -451 402 -6 1 -44 -38 -85 -87 -163 -193 -340 -317
-545 -382 -245 -77 -572 -57 -794 48 -344 164 -538 476 -558 900 -12 269 52
516 186 713 155 228 425 376 734 401 286 24 537 -47 759 -214 77 -58 122 -102
269 -267 l34 -38 439 398 c242 219 441 403 443 409 5 14 -116 162 -208 254
-269 269 -626 464 -1029 563 -211 52 -341 67 -610 70 -129 2 -255 2 -280 0z
m655 -243 c442 -76 791 -243 1088 -521 48 -46 87 -89 85 -97 -2 -7 -129 -127
-283 -267 l-280 -253 -61 57 c-220 205 -461 324 -731 360 -115 16 -369 8 -473
-15 -432 -95 -747 -375 -885 -788 -52 -155 -69 -266 -69 -457 1 -180 18 -306
61 -445 123 -395 432 -690 828 -790 460 -117 916 -2 1248 314 l78 74 27 -25
c15 -13 143 -129 285 -257 141 -128 257 -236 257 -240 0 -12 -181 -184 -247
-234 -212 -161 -512 -297 -783 -355 -201 -44 -326 -56 -565 -56 -315 0 -518
30 -777 115 -727 239 -1237 839 -1342 1579 -60 423 0 847 169 1198 165 343
434 635 763 829 275 162 557 252 932 297 19 2 152 3 295 1 207 -2 285 -7 380
-24z"/>
</g>
</svg>
