<svg xmlns="http://www.w3.org/2000/svg" width="512" height="512" viewBox="0 0 512 512"><path d="m451 144.425v-82.426h-110.106l-84.894-61.998-84.894 61.998h-110.106v82.426l-61 45v322.574h512v-322.574zm-251.004 230.107-169.996 96.68v-241.7zm29.971 17.467h52.066l158.25 90h-368.566zm82.037-17.467 169.996-145.02v241.701zm160.884-176.68-21.888 18.672v-34.82zm-216.888-160.703 34.027 24.85h-68.053zm165 54.85v150.118l-140.529 119.882h-48.942l-140.529-119.882v-150.118zm-360 124.525-21.888-18.673 21.888-16.146z"/><path d="m256 331.999c11.999 0 23.774-2.011 34.999-5.979l-9.997-28.285c-8.005 2.829-16.417 4.264-25.001 4.264-41.355 0-75-33.645-75-75s33.645-75 75-75 75 33.645 75 75c0 8.271-6.729 15-15 15s-15-6.729-15-15c0-15.946 0-29.34 0-45h-45c-24.813 0-45 20.187-45 45s20.187 45 45 45c11.517 0 22.032-4.354 30-11.495 7.968 7.142 18.483 11.495 30 11.495 24.813 0 45-20.187 45-45 0-57.897-47.103-105-105-105s-105 47.103-105 105 47.102 105 104.999 105zm0-90c-8.271 0-15-6.729-15-15s6.729-15 15-15h15v15c0 8.271-6.729 15-15 15z"/></svg>