<svg xmlns="http://www.w3.org/2000/svg" xmlns:xlink="http://www.w3.org/1999/xlink" x="0" y="0" enable-background="new 0 0 1000 1000" version="1.1" viewBox="0 0 1000 1000" xml:space="preserve"><g><g><path d="M4889.8,4747.9c-33.5-19.7-80.7-63-102.3-96.4c-23.6-31.5-299.2-578.7-614.1-1214.4l-570.8-1157.3l-153.5-149.6c-167.3-163.4-309-255.9-484.2-318.9c-70.9-23.6-574.7-106.3-1336.4-216.5c-673.1-96.4-1269.5-189-1326.6-204.7c-185-53.1-250-194.8-165.3-360.2c21.7-41.3,431-456.6,970.3-980.2C2118.6-936.4,2138.3-960,2236.7-1267c98.4-305.1,96.4-322.8-147.6-1749.7c-145.6-842.4-216.5-1299-206.7-1338.4c33.5-157.5,118.1-220.4,271.6-204.7c61,7.9,358.2,155.5,1096.3,541.3c557,293.3,1084.5,568.8,1173.1,614.1c354.3,181.1,791.2,183,1137.6,7.9c76.8-37.4,602.3-312.9,1169.1-610.1c755.8-399.5,1053-545.2,1116-553.1c177.1-19.7,271.6,74.8,269.6,271.6c-2,59.1-96.4,653.5-212.6,1318.7C7667-1609.5,7665-1574.1,7763.5-1267C7861.9-960,7881.6-936.4,8889.3,47.7c509.8,496,946.7,936.9,970.4,978.2c90.5,161.4,25.6,309-161.4,364.1c-57.1,15.7-257.9,51.2-446.8,78.7c-2277.2,320.8-2257.5,316.9-2525.2,507.8c-273.6,194.9-281.5,208.6-905.4,1470.3c-312.9,633.8-590.5,1180.9-616,1216.4C5112.3,4783.3,4998.1,4814.8,4889.8,4747.9z" transform="translate(0.000000,511.000000) scale(0.100000,-0.100000)"/></g></g></svg>