<svg xmlns="http://www.w3.org/2000/svg" viewBox="0 0 1000 1000" xml:space="preserve"><path d="M326.3 902.3c-108.9 0-214.8-31-306.3-89.7-8.5-5.5-12.2-16.1-8.8-25.7s13.1-15.7 23.1-14.2c76.7 8.9 156.8-6.7 224-45.1-66.4-20-120.5-71.4-142.3-139.6-2.4-7.4-.7-15.4 4.5-21.1 3.1-3.5 7.3-5.8 11.8-6.8C80.4 520.4 47.6 458 47.6 389.5c0-7.7 4.1-16 10.8-20 6.7-3.9 14.9-5.1 21.6-1.5 1.9 1.1 3.9 2.1 5.8 3.1-23.6-34.8-36.6-76.5-36.6-119.9 0-37.7 10-74.9 29-107.5 3.6-6.2 10-10.2 17.1-10.8 7.1-.5 14 2.4 18.6 7.9C202 248.9 329.6 317.5 467.2 331.6c-.6-6.6-.9-13.3-.9-19.9 0-117.9 96-213.9 213.9-213.9 54.8 0 107.8 21.2 147.3 58.7 36.4-8.3 71.2-22.3 103.8-41.6 7.8-4.5 17.6-3.9 24.7 1.7 7.1 5.7 9.9 15.1 7.2 23.7-6.9 21.7-17.2 41.9-30.4 60.1 9.1-3.1 17.9-6.7 26.7-10.5 8.8-4 19.3-1.6 25.5 5.9 6.2 7.4 6.8 18.1 1.4 26.1-25.3 37.7-56.2 70.6-91.8 97.9.1 4.7.2 9.5.2 14.2 0 279.3-212.7 568.3-568.5 568.3zm-206-85.8c64.8 27.8 134.7 42.2 206.1 42.2 328.5 0 524.9-266.8 524.9-524.9 0-8-.2-16-.5-24-.3-7.3 3.1-14.3 9-18.6 15.7-11.3 30.4-23.8 44-37.4-14.2 3.3-28.6 5.8-43.2 7.5-10.1 1.4-19.9-4.8-23.2-14.6-3.3-9.7.6-20.4 9.4-25.7 17.3-10.4 32.5-23.6 44.9-38.9-21.7 8.3-44.1 14.8-67 19.3-7.3 1.5-14.9-.9-20.1-6.4-32.1-34.2-77.4-53.8-124.4-53.8-93.9 0-170.3 76.4-170.3 170.3 0 13 1.5 26.1 4.4 38.9 1.5 6.6-.1 13.6-4.5 18.9-4.4 5.2-10.9 8.8-17.8 7.8-148.7-7.5-288.8-73.6-389.4-182.9-6.4 18.2-9.8 37.5-9.8 56.9 0 57.2 28.3 110.1 75.7 141.8 8.1 5.4 11.6 15.5 8.7 24.7-3 9.2-12.2 14.8-21.4 15.2-20.8-.7-41.4-4.4-61.1-11 13.5 67.5 65.4 121 133.1 134.6 9.9 2 17.2 10.5 17.5 20.6s-6.3 19.1-16 21.8c-18.8 5.1-38.5 8-57.8 7.6 29.2 51.6 84 85.2 145.2 86.4 9.2.2 17.3 6.2 20.2 14.9s0 18.4-7.2 24.1c-61.3 48.1-133 76.9-209.4 84.7z"/></svg>